<mxfile host="app.diagrams.net" modified="2023-04-29T06:59:58.810Z" agent="Mozilla/5.0 (Windows NT 10.0; Win64; x64) AppleWebKit/537.36 (KHTML, like Gecko) Chrome/112.0.0.0 Safari/537.36" etag="7wdbmsreY3vdAqkvjBl7" version="21.2.3" type="device">
  <diagram name="Страница 1" id="EnuHW3U4q5UiC1y-OMmj">
    <mxGraphModel dx="1844" dy="1077" grid="1" gridSize="10" guides="1" tooltips="1" connect="1" arrows="1" fold="1" page="1" pageScale="1" pageWidth="827" pageHeight="1169" math="0" shadow="0">
      <root>
        <mxCell id="0" />
        <mxCell id="1" parent="0" />
        <mxCell id="x5OXk51V8IW4JkDKTS3j-28" value="" style="rounded=1;whiteSpace=wrap;html=1;" vertex="1" parent="1">
          <mxGeometry x="-40" y="440" width="460" height="130" as="geometry" />
        </mxCell>
        <mxCell id="x5OXk51V8IW4JkDKTS3j-1" value="" style="ellipse;html=1;shape=startState;fillColor=#000000;strokeColor=#ff0000;" vertex="1" parent="1">
          <mxGeometry x="220" y="50" width="30" height="30" as="geometry" />
        </mxCell>
        <mxCell id="x5OXk51V8IW4JkDKTS3j-2" value="" style="edgeStyle=orthogonalEdgeStyle;html=1;verticalAlign=bottom;endArrow=open;endSize=8;strokeColor=#ff0000;rounded=0;entryX=0.45;entryY=0;entryDx=0;entryDy=0;entryPerimeter=0;" edge="1" source="x5OXk51V8IW4JkDKTS3j-1" parent="1" target="x5OXk51V8IW4JkDKTS3j-6">
          <mxGeometry relative="1" as="geometry">
            <mxPoint x="235" y="140" as="targetPoint" />
          </mxGeometry>
        </mxCell>
        <mxCell id="x5OXk51V8IW4JkDKTS3j-3" value="" style="ellipse;html=1;shape=endState;fillColor=#000000;strokeColor=#ff0000;" vertex="1" parent="1">
          <mxGeometry x="435" y="120" width="30" height="30" as="geometry" />
        </mxCell>
        <mxCell id="x5OXk51V8IW4JkDKTS3j-4" value="Запуск системы" style="text;html=1;align=center;verticalAlign=middle;resizable=0;points=[];autosize=1;strokeColor=none;fillColor=none;" vertex="1" parent="1">
          <mxGeometry x="180" y="20" width="110" height="30" as="geometry" />
        </mxCell>
        <mxCell id="x5OXk51V8IW4JkDKTS3j-5" value="выход" style="text;html=1;align=center;verticalAlign=middle;resizable=0;points=[];autosize=1;strokeColor=none;fillColor=none;" vertex="1" parent="1">
          <mxGeometry x="330" y="140" width="60" height="30" as="geometry" />
        </mxCell>
        <mxCell id="x5OXk51V8IW4JkDKTS3j-10" style="edgeStyle=orthogonalEdgeStyle;rounded=0;orthogonalLoop=1;jettySize=auto;html=1;entryX=0;entryY=0.5;entryDx=0;entryDy=0;" edge="1" parent="1" source="x5OXk51V8IW4JkDKTS3j-6" target="x5OXk51V8IW4JkDKTS3j-8">
          <mxGeometry relative="1" as="geometry" />
        </mxCell>
        <mxCell id="x5OXk51V8IW4JkDKTS3j-12" style="edgeStyle=orthogonalEdgeStyle;rounded=0;orthogonalLoop=1;jettySize=auto;html=1;entryX=1;entryY=0.5;entryDx=0;entryDy=0;" edge="1" parent="1" source="x5OXk51V8IW4JkDKTS3j-6" target="x5OXk51V8IW4JkDKTS3j-11">
          <mxGeometry relative="1" as="geometry" />
        </mxCell>
        <mxCell id="x5OXk51V8IW4JkDKTS3j-15" value="Переход в раздел" style="edgeStyle=orthogonalEdgeStyle;rounded=0;orthogonalLoop=1;jettySize=auto;html=1;entryX=0.451;entryY=0.019;entryDx=0;entryDy=0;entryPerimeter=0;" edge="1" parent="1" source="x5OXk51V8IW4JkDKTS3j-6" target="x5OXk51V8IW4JkDKTS3j-14">
          <mxGeometry relative="1" as="geometry" />
        </mxCell>
        <mxCell id="x5OXk51V8IW4JkDKTS3j-6" value="Ожидание ввода от пользователя" style="rounded=1;whiteSpace=wrap;html=1;" vertex="1" parent="1">
          <mxGeometry x="180" y="140" width="120" height="60" as="geometry" />
        </mxCell>
        <mxCell id="x5OXk51V8IW4JkDKTS3j-9" style="edgeStyle=orthogonalEdgeStyle;rounded=0;orthogonalLoop=1;jettySize=auto;html=1;entryX=0.5;entryY=1;entryDx=0;entryDy=0;" edge="1" parent="1" source="x5OXk51V8IW4JkDKTS3j-8" target="x5OXk51V8IW4JkDKTS3j-3">
          <mxGeometry relative="1" as="geometry" />
        </mxCell>
        <mxCell id="x5OXk51V8IW4JkDKTS3j-8" value="Завершение" style="rounded=1;whiteSpace=wrap;html=1;" vertex="1" parent="1">
          <mxGeometry x="390" y="180" width="120" height="60" as="geometry" />
        </mxCell>
        <mxCell id="x5OXk51V8IW4JkDKTS3j-18" style="edgeStyle=orthogonalEdgeStyle;rounded=0;orthogonalLoop=1;jettySize=auto;html=1;entryX=0.458;entryY=0.019;entryDx=0;entryDy=0;entryPerimeter=0;" edge="1" parent="1" source="x5OXk51V8IW4JkDKTS3j-11" target="x5OXk51V8IW4JkDKTS3j-17">
          <mxGeometry relative="1" as="geometry" />
        </mxCell>
        <mxCell id="x5OXk51V8IW4JkDKTS3j-11" value="Отправка введенных данных" style="rounded=1;whiteSpace=wrap;html=1;" vertex="1" parent="1">
          <mxGeometry x="-60" y="140" width="120" height="60" as="geometry" />
        </mxCell>
        <mxCell id="x5OXk51V8IW4JkDKTS3j-13" value="взаимодействие&lt;br&gt;с данными или &lt;br&gt;бизнес-процессами" style="text;html=1;align=center;verticalAlign=middle;resizable=0;points=[];autosize=1;strokeColor=none;fillColor=none;" vertex="1" parent="1">
          <mxGeometry x="55" y="113" width="130" height="60" as="geometry" />
        </mxCell>
        <mxCell id="x5OXk51V8IW4JkDKTS3j-16" value="Визуализация" style="edgeStyle=orthogonalEdgeStyle;rounded=0;orthogonalLoop=1;jettySize=auto;html=1;entryX=0.75;entryY=1;entryDx=0;entryDy=0;" edge="1" parent="1" source="x5OXk51V8IW4JkDKTS3j-14" target="x5OXk51V8IW4JkDKTS3j-6">
          <mxGeometry relative="1" as="geometry">
            <Array as="points">
              <mxPoint x="270" y="300" />
            </Array>
          </mxGeometry>
        </mxCell>
        <mxCell id="x5OXk51V8IW4JkDKTS3j-19" style="edgeStyle=orthogonalEdgeStyle;rounded=0;orthogonalLoop=1;jettySize=auto;html=1;entryX=0.625;entryY=0.006;entryDx=0;entryDy=0;entryPerimeter=0;" edge="1" parent="1" source="x5OXk51V8IW4JkDKTS3j-14" target="x5OXk51V8IW4JkDKTS3j-17">
          <mxGeometry relative="1" as="geometry" />
        </mxCell>
        <mxCell id="x5OXk51V8IW4JkDKTS3j-14" value="Рендеринг компонента раздела" style="rounded=1;whiteSpace=wrap;html=1;" vertex="1" parent="1">
          <mxGeometry x="110" y="270" width="120" height="60" as="geometry" />
        </mxCell>
        <mxCell id="x5OXk51V8IW4JkDKTS3j-23" value="изменение &lt;br&gt;модели &lt;br&gt;данных" style="edgeStyle=orthogonalEdgeStyle;rounded=0;orthogonalLoop=1;jettySize=auto;html=1;" edge="1" parent="1" source="x5OXk51V8IW4JkDKTS3j-17" target="x5OXk51V8IW4JkDKTS3j-22">
          <mxGeometry relative="1" as="geometry" />
        </mxCell>
        <mxCell id="x5OXk51V8IW4JkDKTS3j-17" value="доступ к необходимому бизнес-сервису" style="rounded=1;whiteSpace=wrap;html=1;" vertex="1" parent="1">
          <mxGeometry x="30" y="480" width="120" height="60" as="geometry" />
        </mxCell>
        <mxCell id="x5OXk51V8IW4JkDKTS3j-20" value="запрос через SignalR" style="text;html=1;align=center;verticalAlign=middle;resizable=0;points=[];autosize=1;strokeColor=none;fillColor=none;" vertex="1" parent="1">
          <mxGeometry x="30" y="380" width="140" height="30" as="geometry" />
        </mxCell>
        <mxCell id="x5OXk51V8IW4JkDKTS3j-21" value="параметры запроса валидны" style="text;html=1;align=center;verticalAlign=middle;resizable=0;points=[];autosize=1;strokeColor=none;fillColor=none;" vertex="1" parent="1">
          <mxGeometry x="-45" y="438" width="190" height="30" as="geometry" />
        </mxCell>
        <mxCell id="x5OXk51V8IW4JkDKTS3j-25" value="Отправка&lt;br&gt;запроса" style="edgeStyle=orthogonalEdgeStyle;rounded=0;orthogonalLoop=1;jettySize=auto;html=1;entryX=0.25;entryY=0;entryDx=0;entryDy=0;" edge="1" parent="1" source="x5OXk51V8IW4JkDKTS3j-22" target="x5OXk51V8IW4JkDKTS3j-24">
          <mxGeometry relative="1" as="geometry">
            <Array as="points">
              <mxPoint x="270" y="560" />
              <mxPoint x="270" y="560" />
            </Array>
          </mxGeometry>
        </mxCell>
        <mxCell id="x5OXk51V8IW4JkDKTS3j-27" value="Передача данных компоненту&lt;br&gt;в реальном времени" style="edgeStyle=orthogonalEdgeStyle;rounded=0;orthogonalLoop=1;jettySize=auto;html=1;entryX=1;entryY=0.75;entryDx=0;entryDy=0;" edge="1" parent="1" source="x5OXk51V8IW4JkDKTS3j-22" target="x5OXk51V8IW4JkDKTS3j-14">
          <mxGeometry x="-0.098" y="-15" relative="1" as="geometry">
            <Array as="points">
              <mxPoint x="320" y="405" />
              <mxPoint x="250" y="405" />
              <mxPoint x="250" y="315" />
            </Array>
            <mxPoint as="offset" />
          </mxGeometry>
        </mxCell>
        <mxCell id="x5OXk51V8IW4JkDKTS3j-22" value="измененная модель данных уровня приложения" style="rounded=1;whiteSpace=wrap;html=1;" vertex="1" parent="1">
          <mxGeometry x="240" y="480" width="120" height="60" as="geometry" />
        </mxCell>
        <mxCell id="x5OXk51V8IW4JkDKTS3j-26" value="Отправка&lt;br&gt;данных или&lt;br&gt;успеха выполнения" style="edgeStyle=orthogonalEdgeStyle;rounded=0;orthogonalLoop=1;jettySize=auto;html=1;entryX=0.799;entryY=1.033;entryDx=0;entryDy=0;entryPerimeter=0;" edge="1" parent="1" source="x5OXk51V8IW4JkDKTS3j-24" target="x5OXk51V8IW4JkDKTS3j-22">
          <mxGeometry x="0.0246" y="-14" relative="1" as="geometry">
            <Array as="points">
              <mxPoint x="336" y="600" />
              <mxPoint x="336" y="600" />
            </Array>
            <mxPoint as="offset" />
          </mxGeometry>
        </mxCell>
        <mxCell id="x5OXk51V8IW4JkDKTS3j-24" value="Сервер БД" style="rounded=1;whiteSpace=wrap;html=1;" vertex="1" parent="1">
          <mxGeometry x="240" y="660" width="120" height="60" as="geometry" />
        </mxCell>
      </root>
    </mxGraphModel>
  </diagram>
</mxfile>
